<svg xmlns="http://www.w3.org/2000/svg" viewBox="0 0 100 100">
<!-- Exemplar: laurel wreath around a radiant spark. -->
<path d="M42.5 80.1A31 31 0 0 1 32.7 24.3M57.5 80.1A31 31 0 0 0 67.3 24.3" fill="none" stroke="currentColor" stroke-width="4" stroke-linecap="round"/>
<g fill="currentColor"><ellipse cx="32" cy="81.2" rx="7.5" ry="3.8" transform="rotate(172 32 81.2)"/><ellipse cx="37" cy="72.5" rx="7.5" ry="3.8" transform="rotate(248 37 72.5)"/><ellipse cx="20.2" cy="70.1" rx="7.5" ry="3.8" transform="rotate(198 20.2 70.1)"/><ellipse cx="28.4" cy="64.5" rx="7.5" ry="3.8" transform="rotate(274 28.4 64.5)"/><ellipse cx="14.4" cy="55" rx="7.5" ry="3.8" transform="rotate(224 14.4 55)"/><ellipse cx="24.3" cy="53.6" rx="7.5" ry="3.8" transform="rotate(300 24.3 53.6)"/><ellipse cx="15.8" cy="38.9" rx="7.5" ry="3.8" transform="rotate(250 15.8 38.9)"/><ellipse cx="25.3" cy="42" rx="7.5" ry="3.8" transform="rotate(326 25.3 42)"/><ellipse cx="24.1" cy="25" rx="7.5" ry="3.8" transform="rotate(276 24.1 25)"/><ellipse cx="31.3" cy="31.9" rx="7.5" ry="3.8" transform="rotate(352 31.3 31.9)"/><ellipse cx="34.5" cy="23.2" rx="7.5" ry="3.8" transform="rotate(330 34.5 23.2)"/><ellipse cx="68" cy="81.2" rx="7.5" ry="3.8" transform="rotate(8 68 81.2)"/><ellipse cx="63" cy="72.5" rx="7.5" ry="3.8" transform="rotate(-68 63 72.5)"/><ellipse cx="79.8" cy="70.1" rx="7.5" ry="3.8" transform="rotate(-18 79.8 70.1)"/><ellipse cx="71.6" cy="64.5" rx="7.5" ry="3.8" transform="rotate(-94 71.6 64.5)"/><ellipse cx="85.6" cy="55" rx="7.5" ry="3.8" transform="rotate(-44 85.6 55)"/><ellipse cx="75.7" cy="53.6" rx="7.5" ry="3.8" transform="rotate(-120 75.7 53.6)"/><ellipse cx="84.2" cy="38.9" rx="7.5" ry="3.8" transform="rotate(-70 84.2 38.9)"/><ellipse cx="74.7" cy="42" rx="7.5" ry="3.8" transform="rotate(-146 74.7 42)"/><ellipse cx="75.9" cy="25" rx="7.5" ry="3.8" transform="rotate(-96 75.9 25)"/><ellipse cx="68.7" cy="31.9" rx="7.5" ry="3.8" transform="rotate(-172 68.7 31.9)"/><ellipse cx="65.5" cy="23.2" rx="7.5" ry="3.8" transform="rotate(-150 65.5 23.2)"/></g>
<path fill="currentColor" d="M50 30 52.5 44 58.1 41.9 56 47.5 70 50 56 52.5 58.1 58.1 52.5 56 50 70 47.5 56 41.9 58.1 44 52.5 30 50 44 47.5 41.9 41.9 47.5 44Z"/>
</svg>
