<svg xmlns="http://www.w3.org/2000/svg" viewBox="0 0 100 100">
<!-- Kineticist: one swirl that runs from flame through stone into a curling wave. -->
<defs><mask id="kineticist-cut"><rect width="100" height="100" fill="#fff"/><path d="M18.5 68.5 26.7 69.4 28.1 65.7 35.3 65.2M31.9 87.6 38.2 82.9 37.3 78.4 42.7 73.8" fill="none" stroke="#000" stroke-width="4" stroke-linejoin="round"/></mask></defs>
<path fill="currentColor" mask="url(#kineticist-cut)" d="M84 45.7C84 45.7 86.9 41.5 86.8 39.7C86.6 37.8 83.9 35.5 83.1 34.4C82.3 33.3 82.1 34.3 81.8 33C81.5 31.7 82.4 29.2 81.3 26.6C80.3 24.1 75.5 17.7 75.5 17.7C75.5 17.7 75.2 21.8 74.4 22.9C73.6 24 71.9 24.2 70.7 24.3C69.6 24.4 68.6 23.8 67.6 23.5C66.5 23.2 65.6 23.9 64.5 22.6C63.4 21.2 63.3 17.7 61 15.5C58.7 13.2 50.7 9 50.7 9C50.7 9 52.9 14.3 52.8 16.4C52.8 18.4 51.2 20.2 50.5 21.1C49.8 22 49.7 21.6 48.6 21.9C47.6 22.2 46.1 23.4 44.3 22.9C42.4 22.4 40.7 19.6 37.6 19C34.5 18.4 25.7 19.1 25.7 19.1C25.7 19.1 30.2 22.3 31.2 24C32.2 25.7 31.6 28.1 31.6 29.1C31.6 30.1 32.1 29.1 31.4 29.9C30.7 30.7 29.1 33.1 27.3 33.9C25.5 34.7 23.2 33.6 20.6 34.8C18.1 36.1 11.9 41.4 11.9 41.4C11.9 41.4 16.4 41.4 17.7 42.2C19 42.9 19.6 44.3 19.8 45.9C20 47.5 19.1 50.5 18.9 51.6C18.7 52.8 18.7 52.9 18.7 52.9C18.7 52.9 15.4 60.8 15.4 60.8C15.4 60.8 20.3 74.2 20.3 74.2C20.3 74.2 25 82.3 25 82.3C25 82.3 38.4 89.2 38.4 89.2C38.4 89.2 47.2 89.2 47.2 89.2C47.2 89.2 48.2 89.4 49.5 89.4C50.8 89.3 53.2 89.3 55 89C56.8 88.8 58.6 88.3 60.2 87.8C61.9 87.2 63.6 86.5 65.1 85.6C66.6 84.8 68 83.8 69.3 82.8C70.6 81.7 71.8 80.5 72.9 79.3C73.9 78.1 74.9 76.7 75.7 75.3C76.5 74 77.1 72.5 77.7 71.1C78.2 69.6 78.6 68.1 78.8 66.7C79.1 65.2 79.2 63.7 79.2 62.3C79.2 60.8 79 59.4 78.7 58C78.5 56.6 78.1 55.3 77.6 54C77.1 52.8 76.5 51.5 75.8 50.4C75.1 49.3 74.2 48.3 73.3 47.4C72.4 46.5 71.5 45.7 70.5 45C69.5 44.3 68.4 43.8 67.3 43.3C66.3 42.8 65.2 42.5 64.1 42.2C63 42 62 41.8 60.9 41.8C59.9 41.7 58.8 41.8 57.8 42C56.8 42.1 55.9 42.4 55 42.7C54.1 43 53.3 43.4 52.5 43.9C51.7 44.3 51 44.9 50.4 45.4C49.8 46 49.3 46.6 48.8 47.3C48.3 47.9 48 48.6 47.7 49.2C47.4 49.9 47.1 50.6 47 51.3C46.8 51.9 46.8 52.9 46.8 53.3A4 4 0 0 0 53.9 57.3C53.8 57.2 53.6 57 53.5 56.7C53.4 56.5 53.3 56.3 53.3 56C53.3 55.7 53.3 55.5 53.4 55.2C53.4 54.9 53.5 54.6 53.7 54.3C53.8 54 54 53.8 54.2 53.5C54.4 53.3 54.7 53 55 52.8C55.3 52.6 55.6 52.4 56 52.2C56.4 52.1 56.8 52 57.2 51.9C57.6 51.8 58.1 51.8 58.6 51.8C59 51.8 59.5 51.9 60 52C60.5 52.2 61 52.3 61.5 52.6C61.9 52.8 62.4 53.1 62.9 53.5C63.3 53.8 63.7 54.2 64.1 54.7C64.6 55.1 65 55.6 65.4 56.2C65.7 56.7 66.1 57.3 66.3 58C66.6 58.7 66.8 59.4 67 60.1C67.1 60.9 67.2 61.6 67.2 62.4C67.2 63.2 67.1 64.1 66.9 64.9C66.8 65.7 66.5 66.6 66.2 67.4C65.8 68.2 65.4 69 64.9 69.8C64.4 70.6 63.8 71.3 63.1 72C62.4 72.7 61.7 73.4 60.8 74C60 74.6 59.1 75.1 58.1 75.6C57.1 76 56.1 76.4 55 76.6C53.9 76.9 52.8 77.1 51.6 77.1C50.5 77.2 49.3 77.2 48.1 77C46.9 76.9 45.7 76.6 44.5 76.2C43.3 75.9 42.1 75.4 40.9 74.8C39.8 74.1 38.7 73.4 37.6 72.6C36.6 71.7 35.6 70.8 34.7 69.7C33.7 68.7 32.8 67.6 32.2 66.3C31.6 65.1 31.3 63.6 31.1 62.2C30.8 60.8 30.7 59.4 30.7 58C30.7 56.6 30.8 55.2 31.1 53.8C31.3 52.4 31.7 51 32.2 49.7C32.6 48.4 33.3 47.1 34 45.9C34.7 44.6 35.5 43.5 36.4 42.4C37.3 41.3 38.3 40.3 39.4 39.4C40.5 38.5 41.6 37.7 42.9 37C44.1 36.3 45.4 35.6 46.7 35.2C48 34.7 49.4 34.3 50.8 34.1C52.2 33.8 53.6 33.7 55 33.7C56.4 33.7 57.8 33.8 59.2 34.1C60.6 34.3 62 34.7 63.3 35.2C64.6 35.6 65.9 36.3 67.2 37C68.4 37.7 69.5 38.5 70.6 39.4C71.7 40.3 72.7 41.3 73.6 42.4C74.5 43.5 74.3 45.3 76 45.9C77.8 46.4 84 45.7 84 45.7Z"/>
</svg>
